<?xml version="1.0" encoding="UTF-8"?>
<svg version="1.1" xmlns="http://www.w3.org/2000/svg" width="512" height="512">
<path d="M0 0 C1.98121328 -0.00435724 3.96242488 -0.00954373 5.94363403 -0.01548767 C11.28271348 -0.02878108 16.62172172 -0.02946712 21.96081448 -0.02692437 C26.4383434 -0.02584792 30.91585832 -0.03075522 35.39338422 -0.03552979 C45.96832169 -0.04659191 56.54322362 -0.04708121 67.11816406 -0.04101562 C77.98072558 -0.03498028 88.84315742 -0.04728337 99.70569682 -0.06858569 C109.07437989 -0.08627414 118.44302196 -0.09219163 127.81172109 -0.08894795 C133.38841996 -0.08714624 138.96502635 -0.08965896 144.5417099 -0.10366249 C149.79171775 -0.11635454 155.04152538 -0.11419063 160.29153061 -0.1012516 C162.20250648 -0.0989107 164.11349695 -0.10152952 166.02445602 -0.10987473 C196.50462223 -0.23323547 225.78433347 6.17336625 248.87207031 27.2746582 C250.12503906 28.31686523 250.12503906 28.31686523 251.40332031 29.38012695 C272.78060984 47.49144169 284.27263667 74.35554071 286.66467857 101.89061546 C287.09674281 108.94067373 287.03804597 116.00419614 287.04907227 123.06494141 C287.05534962 124.84365467 287.06199751 126.62236666 287.06898499 128.40107727 C287.08988223 134.20918897 287.10037613 140.01730048 287.11035156 145.82543945 C287.11440493 147.83800964 287.11852201 149.85057971 287.12270164 151.86314964 C287.1417244 161.32663605 287.15595967 170.79011482 287.16431361 180.25361663 C287.17406544 191.11634583 287.20034358 201.97887016 287.24081451 212.84152728 C287.27114807 221.27769352 287.28579882 229.71380161 287.28909463 238.15002126 C287.29142606 243.16969547 287.30013393 248.18915015 287.3255558 253.20876503 C287.52639393 295.04841985 282.95126251 330.94914161 252.55957031 362.0246582 C227.2849689 386.99956079 195.40232568 394.43137964 160.96411133 394.41992188 C159.16097444 394.42291837 157.35783818 394.42632202 155.55470276 394.43009949 C150.67813821 394.43889696 145.80159123 394.44127589 140.9250195 394.44191527 C137.86910335 394.44262856 134.81319159 394.4447682 131.75727654 394.44741249 C121.06938267 394.45665411 110.38150124 394.46074914 99.69360352 394.45996094 C89.77582004 394.4593615 79.85809118 394.46989005 69.94032151 394.4857046 C61.39127111 394.4988443 52.84223842 394.5041421 44.29317802 394.50350553 C39.20267592 394.50325229 34.11222235 394.50600597 29.02173042 394.51668358 C24.22407386 394.52647261 19.4265111 394.52637096 14.62885094 394.51916695 C12.88397202 394.51813415 11.13908692 394.52040462 9.39421844 394.5265274 C-29.06771994 394.65257124 -59.80282028 385.59414121 -88.12792969 358.6496582 C-108.9383198 337.27771788 -120.82939302 309.19219478 -121.43334961 279.42041016 C-121.45333574 278.56500074 -121.47332188 277.70959133 -121.49391365 276.82826042 C-121.55844169 273.95240814 -121.61542821 271.07648013 -121.67089844 268.20043945 C-121.70175569 266.66903037 -121.70175569 266.66903037 -121.73323631 265.10668373 C-122.27589105 237.59431929 -122.38322676 210.07747447 -122.4171772 182.56048393 C-122.42804059 173.87163716 -122.45287507 165.18308573 -122.49667388 156.49434012 C-122.5270063 150.25448388 -122.54165474 144.01470563 -122.544954 137.77477723 C-122.54726853 134.09766536 -122.55575914 130.42085529 -122.58141518 126.74382591 C-122.82892231 89.38067096 -114.43585236 58.71116089 -87.87792969 31.5871582 C-63.27009266 7.27649976 -33.69773 -0.04948023 0 0 Z " fill="#132E40" transform="translate(173.1279296875,64.725341796875)"/>
<path d="M0 0 C1.88021439 -0.00463535 3.76042786 -0.00966096 5.64064026 -0.01504517 C10.72553634 -0.02809992 15.81041927 -0.03460022 20.89532948 -0.03905582 C24.07851396 -0.04199706 27.26169493 -0.04610374 30.44487762 -0.05056 C40.42306762 -0.0642151 50.40124949 -0.07389213 60.37944818 -0.07776189 C71.86368261 -0.08224145 83.34779796 -0.09979307 94.8319962 -0.12876248 C103.733407 -0.15043093 112.6347844 -0.16046888 121.53622127 -0.16180301 C126.84177288 -0.1628471 132.14721225 -0.16867055 137.4527359 -0.18662262 C142.44657147 -0.20319345 147.44021146 -0.20521538 152.43406487 -0.19648361 C154.25683812 -0.19571811 156.07962229 -0.19999094 157.90236855 -0.20994186 C182.58581829 -0.33669255 204.6831162 5.98239572 222.75292969 23.54785156 C223.61660156 24.41023438 224.48027344 25.27261719 225.37011719 26.16113281 C225.96566406 26.74507813 226.56121094 27.32902344 227.17480469 27.93066406 C241.95173235 43.70603279 246.91514202 66.19041155 246.66308594 87.09082031 C246.65747004 88.46086149 246.65320942 89.83090882 246.65022278 91.20095825 C246.63893042 94.7552441 246.60960437 98.30914458 246.57611084 101.86328125 C246.54506689 105.5106892 246.5316452 109.15816124 246.51660156 112.80566406 C246.48471428 119.92430846 246.43371501 127.04269508 246.37011719 134.16113281 C245.53464355 134.18095215 244.69916992 134.20077148 243.83837891 134.22119141 C240.66596673 134.3004251 237.49386116 134.38713564 234.32177734 134.47851562 C232.30288095 134.53453015 230.28376181 134.58232764 228.26464844 134.62988281 C219.50667029 134.88873931 211.01200163 135.72297231 202.37011719 137.16113281 C201.61570343 137.28435913 200.86128967 137.40758545 200.08401489 137.5345459 C184.85490635 140.22316771 170.92754713 146.86350063 156.91308594 153.15722656 C114.52005392 172.17258438 71.78343163 173.10455763 28.5894165 156.71296692 C25.51297839 155.53754278 22.44110183 154.35074776 19.37011719 153.16113281 C18.34047852 152.76249023 17.31083984 152.36384766 16.25 151.953125 C15.3022168 151.58606445 14.35443359 151.21900391 13.37792969 150.84082031 C2.82878346 146.7573715 -7.6120796 142.78770803 -18.62988281 140.16113281 C-19.54914551 139.93796387 -20.4684082 139.71479492 -21.41552734 139.48486328 C-45.84595639 133.82103415 -70.68664081 134.23983759 -95.62988281 134.16113281 C-95.72339039 125.96257499 -95.79405037 117.76424738 -95.8371315 109.56528473 C-95.85782924 105.7563822 -95.88581125 101.94784977 -95.93164062 98.13916016 C-95.97574685 94.44973727 -95.99915299 90.76066573 -96.00939178 87.07099915 C-96.01666911 85.67745954 -96.03087158 84.28393473 -96.05280304 82.89054871 C-96.25197053 69.68725497 -94.20558009 56.5490055 -87.87988281 44.78613281 C-87.53626709 44.12605225 -87.19265137 43.46597168 -86.83862305 42.78588867 C-83.74003198 37.0170474 -80.05991254 31.98927229 -75.62988281 27.16113281 C-74.96601563 26.40574219 -74.30214844 25.65035156 -73.61816406 24.87207031 C-53.91336295 3.67392938 -27.49068499 0.01585031 0 0 Z " fill="#8DC5E8" transform="translate(180.6298828125,97.8388671875)"/>
<path d="M0 0 C20.04490991 -0.43282755 39.3762615 -0.69889518 59 4 C59.92458008 4.20898926 60.84916016 4.41797852 61.80175781 4.63330078 C77.04058143 8.10375959 91.51626644 13.16801871 106 19 C106.7429834 19.29487305 107.4859668 19.58974609 108.25146484 19.89355469 C117.6570501 23.65938815 126.45024174 28.34508341 135.31176758 33.2409668 C164.54469905 49.36543101 193.95223829 62.42740915 227 68 C227.93271729 68.17950195 228.86543457 68.35900391 229.82641602 68.54394531 C242.46107157 70.72318044 255.27941132 70.47837815 268.0625 70.5 C269.31913452 70.50467285 270.57576904 70.5093457 271.8704834 70.51416016 C292.37220772 70.54286949 311.91155925 68.88675653 331.94042969 64.55078125 C334.71332819 64.05160642 337.19264139 63.8897531 340 64 C340.74577824 90.13665886 338.42304988 113.02518785 320 133 C319.17757813 133.91394531 318.35515625 134.82789063 317.5078125 135.76953125 C305.52337118 148.46609154 289.42090201 157.58203096 272 160 C271.33975138 160.09335475 270.67950275 160.1867095 269.9992466 160.28289318 C261.19468998 161.331264 252.34414483 161.11982516 243.49365234 161.08520508 C241.62653676 161.081604 239.75942037 161.07840025 237.89230347 161.07556152 C232.84237067 161.06623165 227.79248592 161.04990374 222.74257994 161.03119111 C219.58015498 161.01950989 216.417728 161.00885597 213.25529861 160.99844933 C203.33901547 160.96525097 193.42276576 160.9272527 183.5065254 160.88308412 C172.09989973 160.8324076 160.69337896 160.79812709 149.2866596 160.77790338 C140.44204533 160.76116649 131.59756434 160.72922149 122.75303996 160.68605727 C117.48320814 160.66069362 112.21354154 160.64164599 106.94364548 160.63868141 C101.98086451 160.63550363 97.01851304 160.61327905 92.05586624 160.57712555 C90.24686387 160.56710713 88.43780984 160.56364208 86.62878418 160.56765556 C63.72025348 160.60869947 45.13018732 154.66113603 28 139 C27.14792969 138.24074219 26.29585938 137.48148438 25.41796875 136.69921875 C8.89372984 121.19029406 -0.373944 99.57005432 -1.09381104 77.0675354 C-1.13130625 73.83236716 -1.13864413 70.59866142 -1.1328125 67.36328125 C-1.13376923 66.16680466 -1.13472595 64.97032806 -1.13571167 63.7375946 C-1.13638943 61.21039782 -1.13456346 58.68319926 -1.13037109 56.15600586 C-1.12507887 52.36893589 -1.1302979 48.58198789 -1.13671875 44.79492188 C-1.14038948 29.83777961 -0.81486625 14.93547673 0 0 Z " fill="#1C659F" transform="translate(86,265)"/>
</svg>
